<mxfile host="app.diagrams.net" modified="2023-12-02T04:04:35.631Z" agent="Mozilla/5.0 (Windows NT 10.0; Win64; x64) AppleWebKit/537.36 (KHTML, like Gecko) Chrome/119.0.0.0 Safari/537.36" etag="hKlbyIu_bLEguA-WEqHq" version="22.1.5" type="device">
  <diagram name="Page-1" id="2YBvvXClWsGukQMizWep">
    <mxGraphModel dx="989" dy="539" grid="1" gridSize="10" guides="1" tooltips="1" connect="1" arrows="1" fold="1" page="1" pageScale="1" pageWidth="850" pageHeight="1100" math="0" shadow="0">
      <root>
        <mxCell id="0" />
        <mxCell id="1" parent="0" />
        <mxCell id="aM9ryv3xv72pqoxQDRHE-1" value="User" style="shape=umlLifeline;perimeter=lifelinePerimeter;whiteSpace=wrap;html=1;container=0;dropTarget=0;collapsible=0;recursiveResize=0;outlineConnect=0;portConstraint=eastwest;newEdgeStyle={&quot;edgeStyle&quot;:&quot;elbowEdgeStyle&quot;,&quot;elbow&quot;:&quot;vertical&quot;,&quot;curved&quot;:0,&quot;rounded&quot;:0};" parent="1" vertex="1">
          <mxGeometry x="50" y="130" width="100" height="300" as="geometry" />
        </mxCell>
        <mxCell id="aM9ryv3xv72pqoxQDRHE-2" value="" style="html=1;points=[];perimeter=orthogonalPerimeter;outlineConnect=0;targetShapes=umlLifeline;portConstraint=eastwest;newEdgeStyle={&quot;edgeStyle&quot;:&quot;elbowEdgeStyle&quot;,&quot;elbow&quot;:&quot;vertical&quot;,&quot;curved&quot;:0,&quot;rounded&quot;:0};" parent="aM9ryv3xv72pqoxQDRHE-1" vertex="1">
          <mxGeometry x="45" y="70" width="10" height="200" as="geometry" />
        </mxCell>
        <mxCell id="aM9ryv3xv72pqoxQDRHE-5" value="NFT Collection SmartContract" style="shape=umlLifeline;perimeter=lifelinePerimeter;whiteSpace=wrap;html=1;container=0;dropTarget=0;collapsible=0;recursiveResize=0;outlineConnect=0;portConstraint=eastwest;newEdgeStyle={&quot;edgeStyle&quot;:&quot;elbowEdgeStyle&quot;,&quot;elbow&quot;:&quot;vertical&quot;,&quot;curved&quot;:0,&quot;rounded&quot;:0};" parent="1" vertex="1">
          <mxGeometry x="250" y="130" width="100" height="300" as="geometry" />
        </mxCell>
        <mxCell id="aM9ryv3xv72pqoxQDRHE-6" value="" style="html=1;points=[];perimeter=orthogonalPerimeter;outlineConnect=0;targetShapes=umlLifeline;portConstraint=eastwest;newEdgeStyle={&quot;edgeStyle&quot;:&quot;elbowEdgeStyle&quot;,&quot;elbow&quot;:&quot;vertical&quot;,&quot;curved&quot;:0,&quot;rounded&quot;:0};" parent="aM9ryv3xv72pqoxQDRHE-5" vertex="1">
          <mxGeometry x="45" y="80" width="10" height="50" as="geometry" />
        </mxCell>
        <mxCell id="n-eG2vE_drI0UsID5xyo-25" value="" style="html=1;points=[];perimeter=orthogonalPerimeter;outlineConnect=0;targetShapes=umlLifeline;portConstraint=eastwest;newEdgeStyle={&quot;edgeStyle&quot;:&quot;elbowEdgeStyle&quot;,&quot;elbow&quot;:&quot;vertical&quot;,&quot;curved&quot;:0,&quot;rounded&quot;:0};" vertex="1" parent="aM9ryv3xv72pqoxQDRHE-5">
          <mxGeometry x="45" y="170" width="10" height="60" as="geometry" />
        </mxCell>
        <mxCell id="n-eG2vE_drI0UsID5xyo-1" value="IE104 Market SmartContract" style="shape=umlLifeline;perimeter=lifelinePerimeter;whiteSpace=wrap;html=1;container=0;dropTarget=0;collapsible=0;recursiveResize=0;outlineConnect=0;portConstraint=eastwest;newEdgeStyle={&quot;edgeStyle&quot;:&quot;elbowEdgeStyle&quot;,&quot;elbow&quot;:&quot;vertical&quot;,&quot;curved&quot;:0,&quot;rounded&quot;:0};" vertex="1" parent="1">
          <mxGeometry x="490" y="130" width="100" height="300" as="geometry" />
        </mxCell>
        <mxCell id="n-eG2vE_drI0UsID5xyo-2" value="" style="html=1;points=[];perimeter=orthogonalPerimeter;outlineConnect=0;targetShapes=umlLifeline;portConstraint=eastwest;newEdgeStyle={&quot;edgeStyle&quot;:&quot;elbowEdgeStyle&quot;,&quot;elbow&quot;:&quot;vertical&quot;,&quot;curved&quot;:0,&quot;rounded&quot;:0};" vertex="1" parent="n-eG2vE_drI0UsID5xyo-1">
          <mxGeometry x="45" y="140" width="10" height="60" as="geometry" />
        </mxCell>
        <mxCell id="n-eG2vE_drI0UsID5xyo-21" value="" style="html=1;points=[];perimeter=orthogonalPerimeter;outlineConnect=0;targetShapes=umlLifeline;portConstraint=eastwest;newEdgeStyle={&quot;edgeStyle&quot;:&quot;elbowEdgeStyle&quot;,&quot;elbow&quot;:&quot;vertical&quot;,&quot;curved&quot;:0,&quot;rounded&quot;:0};" vertex="1" parent="n-eG2vE_drI0UsID5xyo-1">
          <mxGeometry x="45" y="230" width="10" height="50" as="geometry" />
        </mxCell>
        <mxCell id="n-eG2vE_drI0UsID5xyo-12" value="" style="endArrow=classic;html=1;rounded=0;" edge="1" parent="1" source="aM9ryv3xv72pqoxQDRHE-2" target="aM9ryv3xv72pqoxQDRHE-6">
          <mxGeometry relative="1" as="geometry">
            <mxPoint x="110" y="210" as="sourcePoint" />
            <mxPoint x="295" y="210" as="targetPoint" />
            <Array as="points">
              <mxPoint x="260" y="210" />
            </Array>
          </mxGeometry>
        </mxCell>
        <mxCell id="n-eG2vE_drI0UsID5xyo-13" value="sign&amp;nbsp;approve(address,uint256)" style="edgeLabel;resizable=0;html=1;align=center;verticalAlign=middle;" connectable="0" vertex="1" parent="n-eG2vE_drI0UsID5xyo-12">
          <mxGeometry relative="1" as="geometry" />
        </mxCell>
        <mxCell id="n-eG2vE_drI0UsID5xyo-17" value="" style="endArrow=classic;html=1;rounded=0;dashed=1;" edge="1" parent="1" source="aM9ryv3xv72pqoxQDRHE-6" target="aM9ryv3xv72pqoxQDRHE-2">
          <mxGeometry relative="1" as="geometry">
            <mxPoint x="240" y="360" as="sourcePoint" />
            <mxPoint x="340" y="360" as="targetPoint" />
            <Array as="points">
              <mxPoint x="180" y="250" />
            </Array>
          </mxGeometry>
        </mxCell>
        <mxCell id="n-eG2vE_drI0UsID5xyo-18" value="return transaction receipt" style="edgeLabel;resizable=0;html=1;align=center;verticalAlign=middle;" connectable="0" vertex="1" parent="n-eG2vE_drI0UsID5xyo-17">
          <mxGeometry relative="1" as="geometry" />
        </mxCell>
        <mxCell id="n-eG2vE_drI0UsID5xyo-19" value="" style="endArrow=classic;html=1;rounded=0;" edge="1" parent="1">
          <mxGeometry relative="1" as="geometry">
            <mxPoint x="105.00034482758605" y="280" as="sourcePoint" />
            <mxPoint x="534.9999999999998" y="280.00000000000006" as="targetPoint" />
            <Array as="points">
              <mxPoint x="275.19" y="280" />
            </Array>
          </mxGeometry>
        </mxCell>
        <mxCell id="n-eG2vE_drI0UsID5xyo-20" value="sign&amp;nbsp;createAskOrder(address,uint256,uint256)" style="edgeLabel;resizable=0;html=1;align=center;verticalAlign=middle;" connectable="0" vertex="1" parent="n-eG2vE_drI0UsID5xyo-19">
          <mxGeometry relative="1" as="geometry" />
        </mxCell>
        <mxCell id="n-eG2vE_drI0UsID5xyo-22" value="" style="endArrow=classic;html=1;rounded=0;" edge="1" parent="1" target="n-eG2vE_drI0UsID5xyo-25">
          <mxGeometry relative="1" as="geometry">
            <mxPoint x="535" y="310" as="sourcePoint" />
            <mxPoint x="329.81034482758605" y="310" as="targetPoint" />
          </mxGeometry>
        </mxCell>
        <mxCell id="n-eG2vE_drI0UsID5xyo-23" value="call Transfer(address, address, uint256)" style="edgeLabel;resizable=0;html=1;align=center;verticalAlign=middle;" connectable="0" vertex="1" parent="n-eG2vE_drI0UsID5xyo-22">
          <mxGeometry relative="1" as="geometry">
            <mxPoint x="8" y="10" as="offset" />
          </mxGeometry>
        </mxCell>
        <mxCell id="n-eG2vE_drI0UsID5xyo-28" value="" style="endArrow=classic;html=1;rounded=0;dashed=1;" edge="1" parent="1" source="n-eG2vE_drI0UsID5xyo-25" target="n-eG2vE_drI0UsID5xyo-21">
          <mxGeometry relative="1" as="geometry">
            <mxPoint x="240" y="360" as="sourcePoint" />
            <mxPoint x="340" y="360" as="targetPoint" />
          </mxGeometry>
        </mxCell>
        <mxCell id="n-eG2vE_drI0UsID5xyo-29" value="return transaction receipt" style="edgeLabel;resizable=0;html=1;align=center;verticalAlign=middle;" connectable="0" vertex="1" parent="n-eG2vE_drI0UsID5xyo-28">
          <mxGeometry relative="1" as="geometry" />
        </mxCell>
        <mxCell id="n-eG2vE_drI0UsID5xyo-31" value="" style="endArrow=classic;html=1;rounded=0;dashed=1;" edge="1" parent="1" source="n-eG2vE_drI0UsID5xyo-21" target="aM9ryv3xv72pqoxQDRHE-2">
          <mxGeometry relative="1" as="geometry">
            <mxPoint x="534.9999999999998" y="390" as="sourcePoint" />
            <mxPoint x="105" y="390" as="targetPoint" />
          </mxGeometry>
        </mxCell>
        <mxCell id="n-eG2vE_drI0UsID5xyo-32" value="return transaction receipt" style="edgeLabel;resizable=0;html=1;align=center;verticalAlign=middle;" connectable="0" vertex="1" parent="n-eG2vE_drI0UsID5xyo-31">
          <mxGeometry relative="1" as="geometry" />
        </mxCell>
        <mxCell id="n-eG2vE_drI0UsID5xyo-33" value="&lt;b&gt;Create Ask Order&lt;/b&gt;" style="text;html=1;align=center;verticalAlign=middle;resizable=0;points=[];autosize=1;strokeColor=none;fillColor=none;" vertex="1" parent="1">
          <mxGeometry x="270" y="90" width="120" height="30" as="geometry" />
        </mxCell>
        <mxCell id="n-eG2vE_drI0UsID5xyo-55" value="User" style="shape=umlLifeline;perimeter=lifelinePerimeter;whiteSpace=wrap;html=1;container=0;dropTarget=0;collapsible=0;recursiveResize=0;outlineConnect=0;portConstraint=eastwest;newEdgeStyle={&quot;edgeStyle&quot;:&quot;elbowEdgeStyle&quot;,&quot;elbow&quot;:&quot;vertical&quot;,&quot;curved&quot;:0,&quot;rounded&quot;:0};" vertex="1" parent="1">
          <mxGeometry x="130" y="630" width="100" height="330" as="geometry" />
        </mxCell>
        <mxCell id="n-eG2vE_drI0UsID5xyo-56" value="" style="html=1;points=[];perimeter=orthogonalPerimeter;outlineConnect=0;targetShapes=umlLifeline;portConstraint=eastwest;newEdgeStyle={&quot;edgeStyle&quot;:&quot;elbowEdgeStyle&quot;,&quot;elbow&quot;:&quot;vertical&quot;,&quot;curved&quot;:0,&quot;rounded&quot;:0};" vertex="1" parent="n-eG2vE_drI0UsID5xyo-55">
          <mxGeometry x="45" y="60" width="10" height="250" as="geometry" />
        </mxCell>
        <mxCell id="n-eG2vE_drI0UsID5xyo-57" value="Erc20 WUIT SmartContract" style="shape=umlLifeline;perimeter=lifelinePerimeter;whiteSpace=wrap;html=1;container=0;dropTarget=0;collapsible=0;recursiveResize=0;outlineConnect=0;portConstraint=eastwest;newEdgeStyle={&quot;edgeStyle&quot;:&quot;elbowEdgeStyle&quot;,&quot;elbow&quot;:&quot;vertical&quot;,&quot;curved&quot;:0,&quot;rounded&quot;:0};" vertex="1" parent="1">
          <mxGeometry x="325" y="630" width="100" height="330" as="geometry" />
        </mxCell>
        <mxCell id="n-eG2vE_drI0UsID5xyo-58" value="" style="html=1;points=[];perimeter=orthogonalPerimeter;outlineConnect=0;targetShapes=umlLifeline;portConstraint=eastwest;newEdgeStyle={&quot;edgeStyle&quot;:&quot;elbowEdgeStyle&quot;,&quot;elbow&quot;:&quot;vertical&quot;,&quot;curved&quot;:0,&quot;rounded&quot;:0};" vertex="1" parent="n-eG2vE_drI0UsID5xyo-57">
          <mxGeometry x="45" y="70" width="10" height="50" as="geometry" />
        </mxCell>
        <mxCell id="n-eG2vE_drI0UsID5xyo-59" value="" style="html=1;points=[];perimeter=orthogonalPerimeter;outlineConnect=0;targetShapes=umlLifeline;portConstraint=eastwest;newEdgeStyle={&quot;edgeStyle&quot;:&quot;elbowEdgeStyle&quot;,&quot;elbow&quot;:&quot;vertical&quot;,&quot;curved&quot;:0,&quot;rounded&quot;:0};" vertex="1" parent="n-eG2vE_drI0UsID5xyo-57">
          <mxGeometry x="45" y="160" width="10" height="30" as="geometry" />
        </mxCell>
        <mxCell id="n-eG2vE_drI0UsID5xyo-79" value="" style="html=1;points=[];perimeter=orthogonalPerimeter;outlineConnect=0;targetShapes=umlLifeline;portConstraint=eastwest;newEdgeStyle={&quot;edgeStyle&quot;:&quot;elbowEdgeStyle&quot;,&quot;elbow&quot;:&quot;vertical&quot;,&quot;curved&quot;:0,&quot;rounded&quot;:0};" vertex="1" parent="n-eG2vE_drI0UsID5xyo-57">
          <mxGeometry x="45" y="210" width="10" height="30" as="geometry" />
        </mxCell>
        <mxCell id="n-eG2vE_drI0UsID5xyo-60" value="IE104 Market SmartContract" style="shape=umlLifeline;perimeter=lifelinePerimeter;whiteSpace=wrap;html=1;container=0;dropTarget=0;collapsible=0;recursiveResize=0;outlineConnect=0;portConstraint=eastwest;newEdgeStyle={&quot;edgeStyle&quot;:&quot;elbowEdgeStyle&quot;,&quot;elbow&quot;:&quot;vertical&quot;,&quot;curved&quot;:0,&quot;rounded&quot;:0};" vertex="1" parent="1">
          <mxGeometry x="630" y="630" width="100" height="330" as="geometry" />
        </mxCell>
        <mxCell id="n-eG2vE_drI0UsID5xyo-61" value="" style="html=1;points=[];perimeter=orthogonalPerimeter;outlineConnect=0;targetShapes=umlLifeline;portConstraint=eastwest;newEdgeStyle={&quot;edgeStyle&quot;:&quot;elbowEdgeStyle&quot;,&quot;elbow&quot;:&quot;vertical&quot;,&quot;curved&quot;:0,&quot;rounded&quot;:0};" vertex="1" parent="n-eG2vE_drI0UsID5xyo-60">
          <mxGeometry x="45" y="130" width="10" height="180" as="geometry" />
        </mxCell>
        <mxCell id="n-eG2vE_drI0UsID5xyo-63" value="" style="endArrow=classic;html=1;rounded=0;" edge="1" parent="1" source="n-eG2vE_drI0UsID5xyo-56" target="n-eG2vE_drI0UsID5xyo-58">
          <mxGeometry relative="1" as="geometry">
            <mxPoint x="200" y="700" as="sourcePoint" />
            <mxPoint x="385" y="700" as="targetPoint" />
            <Array as="points">
              <mxPoint x="350" y="700" />
            </Array>
          </mxGeometry>
        </mxCell>
        <mxCell id="n-eG2vE_drI0UsID5xyo-64" value="sign&amp;nbsp;approve(spender, amount)" style="edgeLabel;resizable=0;html=1;align=center;verticalAlign=middle;fontSize=10;" connectable="0" vertex="1" parent="n-eG2vE_drI0UsID5xyo-63">
          <mxGeometry relative="1" as="geometry" />
        </mxCell>
        <mxCell id="n-eG2vE_drI0UsID5xyo-65" value="" style="endArrow=classic;html=1;rounded=0;dashed=1;" edge="1" parent="1" source="n-eG2vE_drI0UsID5xyo-58" target="n-eG2vE_drI0UsID5xyo-56">
          <mxGeometry relative="1" as="geometry">
            <mxPoint x="330" y="850" as="sourcePoint" />
            <mxPoint x="430" y="850" as="targetPoint" />
            <Array as="points">
              <mxPoint x="270" y="740" />
            </Array>
          </mxGeometry>
        </mxCell>
        <mxCell id="n-eG2vE_drI0UsID5xyo-66" value="return transaction receipt" style="edgeLabel;resizable=0;html=1;align=center;verticalAlign=middle;fontSize=10;" connectable="0" vertex="1" parent="n-eG2vE_drI0UsID5xyo-65">
          <mxGeometry relative="1" as="geometry" />
        </mxCell>
        <mxCell id="n-eG2vE_drI0UsID5xyo-67" value="" style="endArrow=classic;html=1;rounded=0;" edge="1" parent="1" source="n-eG2vE_drI0UsID5xyo-56" target="n-eG2vE_drI0UsID5xyo-61">
          <mxGeometry relative="1" as="geometry">
            <mxPoint x="195.00034482758605" y="770" as="sourcePoint" />
            <mxPoint x="624.9999999999998" y="770" as="targetPoint" />
            <Array as="points">
              <mxPoint x="365.19" y="770" />
            </Array>
          </mxGeometry>
        </mxCell>
        <mxCell id="n-eG2vE_drI0UsID5xyo-68" value="sign buyTokenUsingWrapToken(address,uint256,uint256)" style="edgeLabel;resizable=0;html=1;align=center;verticalAlign=middle;fontSize=10;" connectable="0" vertex="1" parent="n-eG2vE_drI0UsID5xyo-67">
          <mxGeometry relative="1" as="geometry" />
        </mxCell>
        <mxCell id="n-eG2vE_drI0UsID5xyo-69" value="" style="endArrow=classic;html=1;rounded=0;" edge="1" parent="1">
          <mxGeometry relative="1" as="geometry">
            <mxPoint x="675" y="790" as="sourcePoint" />
            <mxPoint x="380" y="790" as="targetPoint" />
          </mxGeometry>
        </mxCell>
        <mxCell id="n-eG2vE_drI0UsID5xyo-70" value="&amp;nbsp;TransferFrom(userBuyAddress, marketAddress, amount)" style="edgeLabel;resizable=0;html=1;align=center;verticalAlign=middle;fontSize=10;" connectable="0" vertex="1" parent="n-eG2vE_drI0UsID5xyo-69">
          <mxGeometry relative="1" as="geometry">
            <mxPoint x="8" y="10" as="offset" />
          </mxGeometry>
        </mxCell>
        <mxCell id="n-eG2vE_drI0UsID5xyo-71" value="" style="endArrow=classic;html=1;rounded=0;dashed=1;" edge="1" parent="1">
          <mxGeometry relative="1" as="geometry">
            <mxPoint x="380" y="820" as="sourcePoint" />
            <mxPoint x="675" y="820" as="targetPoint" />
          </mxGeometry>
        </mxCell>
        <mxCell id="n-eG2vE_drI0UsID5xyo-72" value="return transaction receipt" style="edgeLabel;resizable=0;html=1;align=center;verticalAlign=middle;fontSize=10;" connectable="0" vertex="1" parent="n-eG2vE_drI0UsID5xyo-71">
          <mxGeometry relative="1" as="geometry" />
        </mxCell>
        <mxCell id="n-eG2vE_drI0UsID5xyo-73" value="" style="endArrow=classic;html=1;rounded=0;dashed=1;" edge="1" parent="1" target="n-eG2vE_drI0UsID5xyo-56">
          <mxGeometry relative="1" as="geometry">
            <mxPoint x="673" y="940" as="sourcePoint" />
            <mxPoint x="178" y="940" as="targetPoint" />
          </mxGeometry>
        </mxCell>
        <mxCell id="n-eG2vE_drI0UsID5xyo-74" value="return transaction receipt" style="edgeLabel;resizable=0;html=1;align=center;verticalAlign=middle;fontSize=10;" connectable="0" vertex="1" parent="n-eG2vE_drI0UsID5xyo-73">
          <mxGeometry relative="1" as="geometry" />
        </mxCell>
        <mxCell id="n-eG2vE_drI0UsID5xyo-75" value="&lt;b&gt;Buy NFT Using WUIT&lt;/b&gt;" style="text;html=1;align=center;verticalAlign=middle;resizable=0;points=[];autosize=1;strokeColor=none;fillColor=none;" vertex="1" parent="1">
          <mxGeometry x="350" y="590" width="140" height="30" as="geometry" />
        </mxCell>
        <mxCell id="n-eG2vE_drI0UsID5xyo-76" value="" style="endArrow=classic;html=1;rounded=0;" edge="1" parent="1">
          <mxGeometry relative="1" as="geometry">
            <mxPoint x="675" y="840" as="sourcePoint" />
            <mxPoint x="380" y="840" as="targetPoint" />
          </mxGeometry>
        </mxCell>
        <mxCell id="n-eG2vE_drI0UsID5xyo-77" value="&amp;nbsp;TransferFrom(marketAddress, UserSellAddress, amount)" style="edgeLabel;resizable=0;html=1;align=center;verticalAlign=middle;fontSize=10;" connectable="0" vertex="1" parent="n-eG2vE_drI0UsID5xyo-76">
          <mxGeometry relative="1" as="geometry">
            <mxPoint x="8" y="10" as="offset" />
          </mxGeometry>
        </mxCell>
        <mxCell id="n-eG2vE_drI0UsID5xyo-80" value="" style="endArrow=classic;html=1;rounded=0;dashed=1;" edge="1" parent="1">
          <mxGeometry relative="1" as="geometry">
            <mxPoint x="380" y="870" as="sourcePoint" />
            <mxPoint x="675" y="870" as="targetPoint" />
          </mxGeometry>
        </mxCell>
        <mxCell id="n-eG2vE_drI0UsID5xyo-81" value="return transaction receipt" style="edgeLabel;resizable=0;html=1;align=center;verticalAlign=middle;fontSize=10;" connectable="0" vertex="1" parent="n-eG2vE_drI0UsID5xyo-80">
          <mxGeometry relative="1" as="geometry" />
        </mxCell>
        <mxCell id="n-eG2vE_drI0UsID5xyo-82" value="" style="endArrow=classic;html=1;rounded=0;" edge="1" parent="1" target="n-eG2vE_drI0UsID5xyo-86">
          <mxGeometry relative="1" as="geometry">
            <mxPoint x="675" y="890" as="sourcePoint" />
            <mxPoint x="380" y="890" as="targetPoint" />
          </mxGeometry>
        </mxCell>
        <mxCell id="n-eG2vE_drI0UsID5xyo-83" value="transferFrom(marketAddress, userBuyAddress, uint256):&amp;nbsp;" style="edgeLabel;resizable=0;html=1;align=center;verticalAlign=middle;fontSize=10;" connectable="0" vertex="1" parent="n-eG2vE_drI0UsID5xyo-82">
          <mxGeometry relative="1" as="geometry">
            <mxPoint x="45" y="10" as="offset" />
          </mxGeometry>
        </mxCell>
        <mxCell id="n-eG2vE_drI0UsID5xyo-85" value="NFT Collection SmartContract" style="shape=umlLifeline;perimeter=lifelinePerimeter;whiteSpace=wrap;html=1;container=0;dropTarget=0;collapsible=0;recursiveResize=0;outlineConnect=0;portConstraint=eastwest;newEdgeStyle={&quot;edgeStyle&quot;:&quot;elbowEdgeStyle&quot;,&quot;elbow&quot;:&quot;vertical&quot;,&quot;curved&quot;:0,&quot;rounded&quot;:0};" vertex="1" parent="1">
          <mxGeometry x="440" y="630" width="100" height="330" as="geometry" />
        </mxCell>
        <mxCell id="n-eG2vE_drI0UsID5xyo-86" value="" style="html=1;points=[];perimeter=orthogonalPerimeter;outlineConnect=0;targetShapes=umlLifeline;portConstraint=eastwest;newEdgeStyle={&quot;edgeStyle&quot;:&quot;elbowEdgeStyle&quot;,&quot;elbow&quot;:&quot;vertical&quot;,&quot;curved&quot;:0,&quot;rounded&quot;:0};" vertex="1" parent="n-eG2vE_drI0UsID5xyo-85">
          <mxGeometry x="45" y="255" width="10" height="30" as="geometry" />
        </mxCell>
        <mxCell id="n-eG2vE_drI0UsID5xyo-87" value="" style="endArrow=classic;html=1;rounded=0;dashed=1;" edge="1" parent="1" target="n-eG2vE_drI0UsID5xyo-61">
          <mxGeometry relative="1" as="geometry">
            <mxPoint x="495" y="915" as="sourcePoint" />
            <mxPoint x="679.5" y="915" as="targetPoint" />
          </mxGeometry>
        </mxCell>
        <mxCell id="n-eG2vE_drI0UsID5xyo-88" value="return transaction receipt" style="edgeLabel;resizable=0;html=1;align=center;verticalAlign=middle;fontSize=10;" connectable="0" vertex="1" parent="n-eG2vE_drI0UsID5xyo-87">
          <mxGeometry relative="1" as="geometry" />
        </mxCell>
        <mxCell id="n-eG2vE_drI0UsID5xyo-89" value="User" style="shape=umlLifeline;perimeter=lifelinePerimeter;whiteSpace=wrap;html=1;container=0;dropTarget=0;collapsible=0;recursiveResize=0;outlineConnect=0;portConstraint=eastwest;newEdgeStyle={&quot;edgeStyle&quot;:&quot;elbowEdgeStyle&quot;,&quot;elbow&quot;:&quot;vertical&quot;,&quot;curved&quot;:0,&quot;rounded&quot;:0};" vertex="1" parent="1">
          <mxGeometry x="160" y="1080" width="100" height="240" as="geometry" />
        </mxCell>
        <mxCell id="n-eG2vE_drI0UsID5xyo-90" value="" style="html=1;points=[];perimeter=orthogonalPerimeter;outlineConnect=0;targetShapes=umlLifeline;portConstraint=eastwest;newEdgeStyle={&quot;edgeStyle&quot;:&quot;elbowEdgeStyle&quot;,&quot;elbow&quot;:&quot;vertical&quot;,&quot;curved&quot;:0,&quot;rounded&quot;:0};" vertex="1" parent="n-eG2vE_drI0UsID5xyo-89">
          <mxGeometry x="45" y="70" width="10" height="130" as="geometry" />
        </mxCell>
        <mxCell id="n-eG2vE_drI0UsID5xyo-91" value="NFT Collection SmartContract" style="shape=umlLifeline;perimeter=lifelinePerimeter;whiteSpace=wrap;html=1;container=0;dropTarget=0;collapsible=0;recursiveResize=0;outlineConnect=0;portConstraint=eastwest;newEdgeStyle={&quot;edgeStyle&quot;:&quot;elbowEdgeStyle&quot;,&quot;elbow&quot;:&quot;vertical&quot;,&quot;curved&quot;:0,&quot;rounded&quot;:0};" vertex="1" parent="1">
          <mxGeometry x="520" y="1080" width="100" height="240" as="geometry" />
        </mxCell>
        <mxCell id="n-eG2vE_drI0UsID5xyo-92" value="" style="html=1;points=[];perimeter=orthogonalPerimeter;outlineConnect=0;targetShapes=umlLifeline;portConstraint=eastwest;newEdgeStyle={&quot;edgeStyle&quot;:&quot;elbowEdgeStyle&quot;,&quot;elbow&quot;:&quot;vertical&quot;,&quot;curved&quot;:0,&quot;rounded&quot;:0};" vertex="1" parent="n-eG2vE_drI0UsID5xyo-91">
          <mxGeometry x="45" y="145" width="10" height="50" as="geometry" />
        </mxCell>
        <mxCell id="n-eG2vE_drI0UsID5xyo-94" value="IPFS" style="shape=umlLifeline;perimeter=lifelinePerimeter;whiteSpace=wrap;html=1;container=0;dropTarget=0;collapsible=0;recursiveResize=0;outlineConnect=0;portConstraint=eastwest;newEdgeStyle={&quot;edgeStyle&quot;:&quot;elbowEdgeStyle&quot;,&quot;elbow&quot;:&quot;vertical&quot;,&quot;curved&quot;:0,&quot;rounded&quot;:0};" vertex="1" parent="1">
          <mxGeometry x="340" y="1080" width="100" height="240" as="geometry" />
        </mxCell>
        <mxCell id="n-eG2vE_drI0UsID5xyo-110" value="" style="html=1;points=[];perimeter=orthogonalPerimeter;outlineConnect=0;targetShapes=umlLifeline;portConstraint=eastwest;newEdgeStyle={&quot;edgeStyle&quot;:&quot;elbowEdgeStyle&quot;,&quot;elbow&quot;:&quot;vertical&quot;,&quot;curved&quot;:0,&quot;rounded&quot;:0};" vertex="1" parent="n-eG2vE_drI0UsID5xyo-94">
          <mxGeometry x="45" y="70" width="10" height="40" as="geometry" />
        </mxCell>
        <mxCell id="n-eG2vE_drI0UsID5xyo-99" value="" style="endArrow=classic;html=1;rounded=0;dashed=1;" edge="1" parent="1">
          <mxGeometry relative="1" as="geometry">
            <mxPoint x="564.9999999999998" y="1269.9999999999998" as="sourcePoint" />
            <mxPoint x="215" y="1269.9999999999998" as="targetPoint" />
            <Array as="points">
              <mxPoint x="290" y="1270" />
            </Array>
          </mxGeometry>
        </mxCell>
        <mxCell id="n-eG2vE_drI0UsID5xyo-100" value="return transaction receipt" style="edgeLabel;resizable=0;html=1;align=center;verticalAlign=middle;" connectable="0" vertex="1" parent="n-eG2vE_drI0UsID5xyo-99">
          <mxGeometry relative="1" as="geometry" />
        </mxCell>
        <mxCell id="n-eG2vE_drI0UsID5xyo-109" value="&lt;b&gt;Create NFT&lt;/b&gt;" style="text;html=1;align=center;verticalAlign=middle;resizable=0;points=[];autosize=1;strokeColor=none;fillColor=none;" vertex="1" parent="1">
          <mxGeometry x="345" y="1040" width="90" height="30" as="geometry" />
        </mxCell>
        <mxCell id="n-eG2vE_drI0UsID5xyo-112" value="" style="endArrow=classic;html=1;rounded=0;" edge="1" parent="1">
          <mxGeometry relative="1" as="geometry">
            <mxPoint x="215" y="1149.9999999999998" as="sourcePoint" />
            <mxPoint x="385" y="1149.9999999999998" as="targetPoint" />
          </mxGeometry>
        </mxCell>
        <mxCell id="n-eG2vE_drI0UsID5xyo-113" value="post storage metadata&amp;nbsp;" style="edgeLabel;resizable=0;html=1;align=center;verticalAlign=middle;" connectable="0" vertex="1" parent="n-eG2vE_drI0UsID5xyo-112">
          <mxGeometry relative="1" as="geometry" />
        </mxCell>
        <mxCell id="n-eG2vE_drI0UsID5xyo-114" value="" style="endArrow=classic;html=1;rounded=0;dashed=1;" edge="1" parent="1">
          <mxGeometry relative="1" as="geometry">
            <mxPoint x="385" y="1189.9999999999998" as="sourcePoint" />
            <mxPoint x="215" y="1189.9999999999998" as="targetPoint" />
          </mxGeometry>
        </mxCell>
        <mxCell id="n-eG2vE_drI0UsID5xyo-115" value="return cid" style="edgeLabel;resizable=0;html=1;align=center;verticalAlign=middle;" connectable="0" vertex="1" parent="n-eG2vE_drI0UsID5xyo-114">
          <mxGeometry relative="1" as="geometry" />
        </mxCell>
        <mxCell id="n-eG2vE_drI0UsID5xyo-116" value="" style="endArrow=classic;html=1;rounded=0;" edge="1" parent="1" source="n-eG2vE_drI0UsID5xyo-90">
          <mxGeometry relative="1" as="geometry">
            <mxPoint x="215" y="1229.6599999999999" as="sourcePoint" />
            <mxPoint x="564.9999999999998" y="1229.6599999999999" as="targetPoint" />
          </mxGeometry>
        </mxCell>
        <mxCell id="n-eG2vE_drI0UsID5xyo-117" value="sign safeMint(userAddress,uri)" style="edgeLabel;resizable=0;html=1;align=center;verticalAlign=middle;" connectable="0" vertex="1" parent="n-eG2vE_drI0UsID5xyo-116">
          <mxGeometry relative="1" as="geometry" />
        </mxCell>
        <mxCell id="n-eG2vE_drI0UsID5xyo-119" value="User" style="shape=umlLifeline;perimeter=lifelinePerimeter;whiteSpace=wrap;html=1;container=0;dropTarget=0;collapsible=0;recursiveResize=0;outlineConnect=0;portConstraint=eastwest;newEdgeStyle={&quot;edgeStyle&quot;:&quot;elbowEdgeStyle&quot;,&quot;elbow&quot;:&quot;vertical&quot;,&quot;curved&quot;:0,&quot;rounded&quot;:0};" vertex="1" parent="1">
          <mxGeometry x="180" y="1470" width="100" height="230" as="geometry" />
        </mxCell>
        <mxCell id="n-eG2vE_drI0UsID5xyo-120" value="" style="html=1;points=[];perimeter=orthogonalPerimeter;outlineConnect=0;targetShapes=umlLifeline;portConstraint=eastwest;newEdgeStyle={&quot;edgeStyle&quot;:&quot;elbowEdgeStyle&quot;,&quot;elbow&quot;:&quot;vertical&quot;,&quot;curved&quot;:0,&quot;rounded&quot;:0};" vertex="1" parent="n-eG2vE_drI0UsID5xyo-119">
          <mxGeometry x="45" y="70" width="10" height="120" as="geometry" />
        </mxCell>
        <mxCell id="n-eG2vE_drI0UsID5xyo-124" value="IE104 Market SmartContract" style="shape=umlLifeline;perimeter=lifelinePerimeter;whiteSpace=wrap;html=1;container=0;dropTarget=0;collapsible=0;recursiveResize=0;outlineConnect=0;portConstraint=eastwest;newEdgeStyle={&quot;edgeStyle&quot;:&quot;elbowEdgeStyle&quot;,&quot;elbow&quot;:&quot;vertical&quot;,&quot;curved&quot;:0,&quot;rounded&quot;:0};" vertex="1" parent="1">
          <mxGeometry x="400" y="1470" width="100" height="230" as="geometry" />
        </mxCell>
        <mxCell id="n-eG2vE_drI0UsID5xyo-125" value="" style="html=1;points=[];perimeter=orthogonalPerimeter;outlineConnect=0;targetShapes=umlLifeline;portConstraint=eastwest;newEdgeStyle={&quot;edgeStyle&quot;:&quot;elbowEdgeStyle&quot;,&quot;elbow&quot;:&quot;vertical&quot;,&quot;curved&quot;:0,&quot;rounded&quot;:0};" vertex="1" parent="n-eG2vE_drI0UsID5xyo-124">
          <mxGeometry x="45" y="70" width="10" height="130" as="geometry" />
        </mxCell>
        <mxCell id="n-eG2vE_drI0UsID5xyo-131" value="" style="endArrow=classic;html=1;rounded=0;" edge="1" parent="1" source="n-eG2vE_drI0UsID5xyo-120" target="n-eG2vE_drI0UsID5xyo-124">
          <mxGeometry relative="1" as="geometry">
            <mxPoint x="215" y="1540" as="sourcePoint" />
            <mxPoint x="454.9999999999998" y="1540" as="targetPoint" />
            <Array as="points">
              <mxPoint x="385.19" y="1540" />
            </Array>
          </mxGeometry>
        </mxCell>
        <mxCell id="n-eG2vE_drI0UsID5xyo-132" value="sign&amp;nbsp;cancelAskOrder(address,uint256)" style="edgeLabel;resizable=0;html=1;align=center;verticalAlign=middle;" connectable="0" vertex="1" parent="n-eG2vE_drI0UsID5xyo-131">
          <mxGeometry relative="1" as="geometry" />
        </mxCell>
        <mxCell id="n-eG2vE_drI0UsID5xyo-133" value="" style="endArrow=classic;html=1;rounded=0;" edge="1" parent="1">
          <mxGeometry relative="1" as="geometry">
            <mxPoint x="454.9999999999998" y="1570" as="sourcePoint" />
            <mxPoint x="694.9999999999998" y="1570" as="targetPoint" />
          </mxGeometry>
        </mxCell>
        <mxCell id="n-eG2vE_drI0UsID5xyo-134" value="call Transfer(marketAddress, userAddress, tokenId)" style="edgeLabel;resizable=0;html=1;align=center;verticalAlign=middle;" connectable="0" vertex="1" parent="n-eG2vE_drI0UsID5xyo-133">
          <mxGeometry relative="1" as="geometry">
            <mxPoint x="-3" y="10" as="offset" />
          </mxGeometry>
        </mxCell>
        <mxCell id="n-eG2vE_drI0UsID5xyo-139" value="&lt;b&gt;Cancel Order&lt;/b&gt;" style="text;html=1;align=center;verticalAlign=middle;resizable=0;points=[];autosize=1;strokeColor=none;fillColor=none;" vertex="1" parent="1">
          <mxGeometry x="390" y="1430" width="100" height="30" as="geometry" />
        </mxCell>
        <mxCell id="n-eG2vE_drI0UsID5xyo-140" value="NFT Collection SmartContract" style="shape=umlLifeline;perimeter=lifelinePerimeter;whiteSpace=wrap;html=1;container=0;dropTarget=0;collapsible=0;recursiveResize=0;outlineConnect=0;portConstraint=eastwest;newEdgeStyle={&quot;edgeStyle&quot;:&quot;elbowEdgeStyle&quot;,&quot;elbow&quot;:&quot;vertical&quot;,&quot;curved&quot;:0,&quot;rounded&quot;:0};" vertex="1" parent="1">
          <mxGeometry x="650" y="1470" width="100" height="230" as="geometry" />
        </mxCell>
        <mxCell id="n-eG2vE_drI0UsID5xyo-141" value="" style="html=1;points=[];perimeter=orthogonalPerimeter;outlineConnect=0;targetShapes=umlLifeline;portConstraint=eastwest;newEdgeStyle={&quot;edgeStyle&quot;:&quot;elbowEdgeStyle&quot;,&quot;elbow&quot;:&quot;vertical&quot;,&quot;curved&quot;:0,&quot;rounded&quot;:0};" vertex="1" parent="n-eG2vE_drI0UsID5xyo-140">
          <mxGeometry x="45" y="100" width="10" height="50" as="geometry" />
        </mxCell>
        <mxCell id="n-eG2vE_drI0UsID5xyo-143" value="" style="endArrow=classic;html=1;rounded=0;dashed=1;" edge="1" parent="1">
          <mxGeometry relative="1" as="geometry">
            <mxPoint x="694.9999999999998" y="1620" as="sourcePoint" />
            <mxPoint x="454.9999999999998" y="1620" as="targetPoint" />
          </mxGeometry>
        </mxCell>
        <mxCell id="n-eG2vE_drI0UsID5xyo-144" value="return transaction receipt" style="edgeLabel;resizable=0;html=1;align=center;verticalAlign=middle;" connectable="0" vertex="1" parent="n-eG2vE_drI0UsID5xyo-143">
          <mxGeometry relative="1" as="geometry" />
        </mxCell>
        <mxCell id="n-eG2vE_drI0UsID5xyo-146" value="" style="endArrow=classic;html=1;rounded=0;dashed=1;" edge="1" parent="1" target="n-eG2vE_drI0UsID5xyo-120">
          <mxGeometry relative="1" as="geometry">
            <mxPoint x="444.9999999999998" y="1640" as="sourcePoint" />
            <mxPoint x="214.99999999999977" y="1640" as="targetPoint" />
          </mxGeometry>
        </mxCell>
        <mxCell id="n-eG2vE_drI0UsID5xyo-147" value="return transaction receipt" style="edgeLabel;resizable=0;html=1;align=center;verticalAlign=middle;" connectable="0" vertex="1" parent="n-eG2vE_drI0UsID5xyo-146">
          <mxGeometry relative="1" as="geometry" />
        </mxCell>
        <mxCell id="n-eG2vE_drI0UsID5xyo-149" value="User" style="shape=umlLifeline;perimeter=lifelinePerimeter;whiteSpace=wrap;html=1;container=0;dropTarget=0;collapsible=0;recursiveResize=0;outlineConnect=0;portConstraint=eastwest;newEdgeStyle={&quot;edgeStyle&quot;:&quot;elbowEdgeStyle&quot;,&quot;elbow&quot;:&quot;vertical&quot;,&quot;curved&quot;:0,&quot;rounded&quot;:0};" vertex="1" parent="1">
          <mxGeometry x="175" y="1860" width="100" height="170" as="geometry" />
        </mxCell>
        <mxCell id="n-eG2vE_drI0UsID5xyo-150" value="" style="html=1;points=[];perimeter=orthogonalPerimeter;outlineConnect=0;targetShapes=umlLifeline;portConstraint=eastwest;newEdgeStyle={&quot;edgeStyle&quot;:&quot;elbowEdgeStyle&quot;,&quot;elbow&quot;:&quot;vertical&quot;,&quot;curved&quot;:0,&quot;rounded&quot;:0};" vertex="1" parent="n-eG2vE_drI0UsID5xyo-149">
          <mxGeometry x="45" y="70" width="10" height="70" as="geometry" />
        </mxCell>
        <mxCell id="n-eG2vE_drI0UsID5xyo-151" value="WUIT Token SmartContract" style="shape=umlLifeline;perimeter=lifelinePerimeter;whiteSpace=wrap;html=1;container=0;dropTarget=0;collapsible=0;recursiveResize=0;outlineConnect=0;portConstraint=eastwest;newEdgeStyle={&quot;edgeStyle&quot;:&quot;elbowEdgeStyle&quot;,&quot;elbow&quot;:&quot;vertical&quot;,&quot;curved&quot;:0,&quot;rounded&quot;:0};" vertex="1" parent="1">
          <mxGeometry x="395" y="1860" width="100" height="170" as="geometry" />
        </mxCell>
        <mxCell id="n-eG2vE_drI0UsID5xyo-152" value="" style="html=1;points=[];perimeter=orthogonalPerimeter;outlineConnect=0;targetShapes=umlLifeline;portConstraint=eastwest;newEdgeStyle={&quot;edgeStyle&quot;:&quot;elbowEdgeStyle&quot;,&quot;elbow&quot;:&quot;vertical&quot;,&quot;curved&quot;:0,&quot;rounded&quot;:0};" vertex="1" parent="n-eG2vE_drI0UsID5xyo-151">
          <mxGeometry x="45" y="70" width="10" height="70" as="geometry" />
        </mxCell>
        <mxCell id="n-eG2vE_drI0UsID5xyo-153" value="" style="endArrow=classic;html=1;rounded=0;" edge="1" parent="1" source="n-eG2vE_drI0UsID5xyo-150" target="n-eG2vE_drI0UsID5xyo-151">
          <mxGeometry relative="1" as="geometry">
            <mxPoint x="210" y="1930" as="sourcePoint" />
            <mxPoint x="449.9999999999998" y="1930" as="targetPoint" />
            <Array as="points">
              <mxPoint x="380.19" y="1930" />
            </Array>
          </mxGeometry>
        </mxCell>
        <mxCell id="n-eG2vE_drI0UsID5xyo-154" value="sign&amp;nbsp;deposit(amount)" style="edgeLabel;resizable=0;html=1;align=center;verticalAlign=middle;" connectable="0" vertex="1" parent="n-eG2vE_drI0UsID5xyo-153">
          <mxGeometry relative="1" as="geometry" />
        </mxCell>
        <mxCell id="n-eG2vE_drI0UsID5xyo-157" value="&lt;b&gt;Deposit&lt;/b&gt;" style="text;html=1;align=center;verticalAlign=middle;resizable=0;points=[];autosize=1;strokeColor=none;fillColor=none;" vertex="1" parent="1">
          <mxGeometry x="300" y="1820" width="70" height="30" as="geometry" />
        </mxCell>
        <mxCell id="n-eG2vE_drI0UsID5xyo-162" value="" style="endArrow=classic;html=1;rounded=0;dashed=1;" edge="1" parent="1">
          <mxGeometry relative="1" as="geometry">
            <mxPoint x="439.9999999999998" y="1974.66" as="sourcePoint" />
            <mxPoint x="230" y="1974.66" as="targetPoint" />
          </mxGeometry>
        </mxCell>
        <mxCell id="n-eG2vE_drI0UsID5xyo-163" value="return transaction receipt" style="edgeLabel;resizable=0;html=1;align=center;verticalAlign=middle;" connectable="0" vertex="1" parent="n-eG2vE_drI0UsID5xyo-162">
          <mxGeometry relative="1" as="geometry" />
        </mxCell>
      </root>
    </mxGraphModel>
  </diagram>
</mxfile>
